# xmcd CD database file
#
# Track frame offsets:
#	150
#	25558
#	54271
#	77168
#	101451
#	136419
#	169765
#
# Disc length: 2609 seconds
#
# Revision: 0
# Processed by: cddbd v1.5.2PL0 Copyright (c) Steve Scherf et al.
# Submitted via: CDex 1.75
#
DISCID=4a0a2f07
DTITLE=Mazzsacre - +
DYEAR=2015
DGENRE=Jazz
TTITLE0=Lust
TTITLE1=Gluttony
TTITLE2=Greed
TTITLE3=Sloth
TTITLE4=Wrath
TTITLE5=Envy
TTITLE6=Pride
EXTD=YEAR: 2015
EXTT0=
EXTT1=
EXTT2=
EXTT3=
EXTT4=
EXTT5=
EXTT6=
PLAYORDER=
